<?xml version="1.0" encoding="UTF-8"?>
<svg version="1.1" xmlns="http://www.w3.org/2000/svg" width="600" height="200">
<path d="M0 0 C29.03019142 -0.82592362 53.97886945 9.30443256 75.77734375 28.3046875 C94.05214662 45.58385084 105.75355748 70.92732676 106.515625 96.08984375 C106.93324002 125.41333382 98.3478759 149.8906285 79.3125 172.15625 C78.72984375 172.84203125 78.1471875 173.5278125 77.546875 174.234375 C71.84195819 180.40029518 63.81992739 186.40253631 56.3125 190.15625 C75.29156182 191.13792561 92.27439081 186.73783605 107.0703125 174.2109375 C119.1673507 163.12549831 127.64476382 147.7552882 128.4064579 131.1020031 C128.44676971 128.65991548 128.45583855 126.21952204 128.4543457 123.77709961 C128.45782013 122.85100891 128.46129456 121.92491821 128.46487427 120.97076416 C128.47220701 118.96558668 128.47756556 116.96040121 128.48116493 114.95521355 C128.48836575 111.77122915 128.50406086 108.58739572 128.52250671 105.40345764 C128.57479503 96.35240797 128.62289531 87.3014415 128.63842773 78.25024414 C128.64856373 72.70587757 128.67803051 67.16189277 128.71974754 61.61767769 C128.73198318 59.51559919 128.73719254 57.4134666 128.73494911 55.31135368 C128.72129166 38.33268096 129.79955719 24.4130331 141.96875 11.3828125 C152.64673783 1.46034268 165.46065083 -0.14468237 179.43797302 -0.12463379 C180.74126039 -0.13057603 182.04454776 -0.13651828 183.38732868 -0.14264059 C186.98480658 -0.15867816 190.58220444 -0.16235394 194.17971385 -0.16383553 C198.0673303 -0.16755439 201.95490608 -0.1826574 205.84249878 -0.19610596 C214.33203026 -0.22319599 222.82154276 -0.23530872 231.31111026 -0.24412727 C236.61510093 -0.24966251 241.91908437 -0.25813884 247.22307014 -0.26713562 C261.91899755 -0.29150601 276.61491919 -0.31211079 291.31086636 -0.3188858 C292.71987078 -0.3195445 292.71987078 -0.3195445 294.15733993 -0.32021651 C295.09886085 -0.32065306 296.04038176 -0.32108962 297.01043361 -0.3215394 C298.91816994 -0.32242632 300.82590626 -0.32331945 302.73364258 -0.32421875 C304.15308282 -0.32488304 304.15308282 -0.32488304 305.60119862 -0.32556075 C320.94225903 -0.33346073 336.28312969 -0.36838758 351.62411677 -0.41493779 C367.38813053 -0.46238449 383.15204906 -0.48729022 398.91613537 -0.48962164 C407.76179137 -0.49145354 416.60719972 -0.50291828 425.4527874 -0.53926086 C432.98237212 -0.57008893 440.51163255 -0.5802884 448.0412684 -0.56378466 C451.88069448 -0.55598175 455.71946774 -0.55777891 459.5588131 -0.58589935 C463.72635908 -0.61614409 467.89244016 -0.59961631 472.06004333 -0.57873535 C473.26598835 -0.59484816 474.47193336 -0.61096097 475.71442217 -0.62756205 C485.21661704 -0.51629691 491.21974281 2.41938474 498.1875 8.78125 C498.88875 9.565 499.59 10.34875 500.3125 11.15625 C501.00640713 11.73786266 501.70031425 12.31947533 502.41524887 12.91871262 C504.90974372 15.86061387 504.80631047 17.50691977 504.79351807 21.33184814 C504.80176605 23.23328079 504.80176605 23.23328079 504.81018066 25.17312622 C504.79602496 26.57538221 504.78148573 27.97763437 504.76660156 29.37988281 C504.76547312 30.85828623 504.76610688 32.33669188 504.76837158 33.81509399 C504.76951981 37.82732216 504.74599327 41.83907254 504.71807575 45.85118961 C504.69308005 50.04454696 504.69072155 54.2379151 504.68597412 58.43133545 C504.67353893 66.37156781 504.64071005 74.31158003 504.60057616 82.25171542 C504.55587529 91.29150835 504.53387566 100.33131176 504.51379442 109.37118769 C504.47197784 127.9663333 504.4016153 146.56127395 504.3125 165.15625 C498.60523415 166.33735847 498.60523415 166.33735847 495.97062683 164.7073822 C493.74334402 161.28056781 493.74708306 158.29568171 493.7824707 154.33813477 C493.77370816 153.55071805 493.76494562 152.76330133 493.75591755 151.95202351 C493.73137093 149.33366736 493.73487798 146.71611336 493.73828125 144.09765625 C493.7262704 142.25113696 493.71243178 140.40462876 493.6968689 138.55813599 C493.66730108 134.64088711 493.64964613 130.72383936 493.64144897 126.80648804 C493.62813364 120.72925679 493.58525414 114.65247565 493.53637695 108.57543945 C493.47453827 100.65416837 493.42074885 92.7329094 493.37597656 84.81152344 C493.30845296 73.06159857 493.2380756 61.31205696 493.0406189 49.56344604 C493.00127335 46.92900864 492.98415743 44.29506428 492.96801758 41.66040039 C492.8493307 32.52799832 492.48430019 23.468482 486.61206055 15.9909668 C480.46363167 11.08540962 472.5743535 11.8731753 465.11088562 11.90228271 C463.88281104 11.89916273 462.65473647 11.89604275 461.38944751 11.89282823 C457.99261689 11.88624324 454.59600823 11.88859697 451.19919121 11.89480066 C447.53105104 11.89933193 443.86293005 11.89233795 440.1947937 11.88684082 C433.01278105 11.87795159 425.83081021 11.87986697 418.64879593 11.8856661 C412.80951395 11.89018549 406.97024369 11.89079429 401.13096046 11.88861847 C400.29941239 11.888312 399.46786431 11.88800554 398.61111781 11.88768978 C396.92172886 11.88705032 395.23233991 11.88640189 393.54295097 11.8857446 C377.7035607 11.88004241 361.8641936 11.88659691 346.02480713 11.89734533 C332.44434223 11.9062758 318.86391154 11.90473275 305.28344727 11.89550781 C289.50482982 11.8847947 273.72623268 11.88059693 257.94761211 11.88673234 C256.26357035 11.88736942 254.57952859 11.88799816 252.89548683 11.88861847 C251.6526991 11.8890813 251.6526991 11.8890813 250.38480454 11.88955347 C244.55647023 11.89127766 238.72814883 11.88837117 232.89981651 11.88365936 C225.7911327 11.87803874 218.68249302 11.87959157 211.57381424 11.89022085 C207.94930012 11.89546245 204.3248595 11.89756027 200.70034599 11.89092255 C196.76521124 11.88382524 192.83019576 11.89232328 188.89506531 11.90228271 C187.18915703 11.89559055 187.18915703 11.89559055 185.44878596 11.88876319 C172.50900265 11.95218547 159.73902011 14.07754929 150.00390625 23.22265625 C145.53105576 28.33596108 143.19948695 34.44444013 143.17446899 41.21882629 C143.16901566 42.0188205 143.16356232 42.8188147 143.15794373 43.64305115 C143.1569014 44.51212601 143.15585907 45.38120087 143.15478516 46.27661133 C143.14970444 47.19919739 143.14462372 48.12178345 143.13938904 49.07232666 C143.12869153 51.07644007 143.12006892 53.08056539 143.11326981 55.08469582 C143.10144822 58.26906602 143.0819823 61.45330259 143.06015015 64.63761902 C142.99867667 73.69220441 142.94470491 82.74677848 142.91113281 91.80151367 C142.89003428 97.3435323 142.85460245 102.88531064 142.81037521 108.42719078 C142.79632484 110.52761671 142.7875179 112.62808519 142.78432083 114.72855568 C142.74169131 140.07590544 138.23357417 162.50646228 120.03125 181.55859375 C102.650867 198.16485049 87.36359836 201.23360275 64 201.05078125 C61.45662153 201.05296186 58.9132441 201.05737118 56.36987305 201.06388855 C51.06101128 201.06966867 45.75300606 201.05161597 40.44433594 201.01391602 C34.34827899 200.97099433 28.25358178 200.97453448 22.15746975 201.0027836 C16.23975074 201.02901762 10.32244265 201.02079863 4.4046936 200.99808311 C1.91070284 200.99161546 -0.58332606 200.99360304 -3.07730103 201.00458717 C-16.85027027 201.04653054 -28.37629418 200.79431006 -40.6875 194.15625 C-41.46853592 193.76602661 -42.24957184 193.37580322 -43.05427551 192.97375488 C-51.58057776 188.534388 -58.87309517 182.9174173 -65.6875 176.15625 C-66.55375 175.33125 -67.42 174.50625 -68.3125 173.65625 C-69.09625 172.83125 -69.88 172.00625 -70.6875 171.15625 C-71.26757812 170.57101563 -71.84765625 169.98578125 -72.4453125 169.3828125 C-89.34703702 151.55315016 -95.88561909 129.73187779 -96.03759766 105.76855469 C-96.05401341 103.88170921 -96.08110827 101.99492209 -96.11962891 100.10839844 C-96.44133935 84.22429493 -94.49819563 70.07553006 -86.9375 55.84375 C-86.43597412 54.8703064 -86.43597412 54.8703064 -85.92431641 53.87719727 C-82.5045264 47.45067733 -78.29750759 41.78877807 -73.6875 36.15625 C-72.93726563 35.17785156 -72.93726563 35.17785156 -72.171875 34.1796875 C-57.07747038 15.18155755 -31.79335349 3.72413572 -8.25 0.40625 C-5.50259347 0.19811314 -2.75308396 0.1166561 0 0 Z M-63 43.53125 C-75.33535436 58.15189107 -83.61799816 76.97003518 -84.6875 96.15625 C-84.74035156 97.0225 -84.79320313 97.88875 -84.84765625 98.78125 C-85.59606118 122.7302077 -76.36164817 145.29158004 -60.6875 163.15625 C-45.37432074 179.24190417 -23.14035298 190.50698326 -0.69140625 191.359375 C26.42343417 191.83855442 49.41111982 182.57598639 69 163.78125 C86.61575192 145.57830635 93.85369406 122.21253134 93.5234375 97.30078125 C92.82106791 73.77140006 81.66850474 53.51225474 65.3125 37.15625 C64.64476562 36.48851563 63.97703125 35.82078125 63.2890625 35.1328125 C45.318319 18.37528375 21.59069488 12.23480252 -2.38037109 13.02001953 C-25.94415995 14.41140516 -47.11300213 26.65131476 -63 43.53125 Z " fill="none" stroke="currentColor" transform="translate(95.6875,-0.15625)"/>
<path d="M0 0 C5.62702436 3.93201878 9.29001528 8.81980394 10.6328125 15.5859375 C11.93413525 24.13957582 10.07879071 30.47588623 5.05078125 37.5078125 C0.58466352 42.5393829 -4.68390867 44.6743703 -11.26953125 45.55859375 C-18.72773339 45.89145633 -24.23877428 44.06938803 -30.08203125 39.43359375 C-35.61906192 34.1507581 -37.94332914 28.6223589 -38.20703125 20.99609375 C-37.91438226 13.78078245 -35.95262711 7.74168961 -30.76953125 2.55859375 C-21.10902541 -4.47266102 -10.7567768 -6.03679207 0 0 Z M-22.76953125 14.55859375 C-24.51883114 17.52479791 -24.78793079 19.11700477 -24.64453125 22.55859375 C-23.35098066 26.99362435 -21.40410943 29.61225901 -17.39453125 31.93359375 C-13.94834133 32.75411516 -12.14437671 32.7294585 -8.76953125 31.55859375 C-5.00095674 28.51111322 -2.98715336 25.79903979 -2.14453125 20.99609375 C-2.99990776 16.29152294 -4.74594127 13.04255974 -8.64453125 10.18359375 C-15.05118079 8.29928506 -18.15745616 9.84169878 -22.76953125 14.55859375 Z " fill="none" stroke="currentColor" transform="translate(113.76953125,27.44140625)"/>
<path d="M0 0 C4.99835724 4.09398521 8.66114094 10.03846406 9.8828125 16.4140625 C10.31372171 24.10309877 8.81626182 31.03275441 3.79296875 36.95703125 C-2.45882655 42.86682462 -8.55855765 45.01585273 -17.0703125 44.92578125 C-24.11923346 44.24727549 -29.48198864 41.05676989 -33.9921875 35.64453125 C-39.03854723 28.77587495 -39.7798955 23.05816594 -38.9921875 14.64453125 C-37.21113311 7.4635922 -33.10754843 2.67065855 -26.9921875 -1.35546875 C-18.23615203 -6.0061103 -8.34822967 -5.19146182 0 0 Z M-23.8046875 13.45703125 C-25.35320309 16.30955997 -25.86203962 18.39083429 -25.9921875 21.64453125 C-24.32422558 26.27775881 -22.21762626 29.08961479 -17.9921875 31.64453125 C-14.00260804 32.3236086 -12.32436079 31.82339379 -8.7421875 29.89453125 C-4.9013235 26.75200616 -4.2252564 25.18861273 -3.4921875 20.33203125 C-4.16297478 15.38497503 -6.1536867 12.76440861 -9.9921875 9.64453125 C-15.57336009 7.55159153 -19.67998371 9.33232746 -23.8046875 13.45703125 Z " fill="none" stroke="currentColor" transform="translate(114.9921875,135.35546875)"/>
<path d="M0 0 C6.43167949 4.55132137 9.87139715 9.64610341 11.375 17.4375 C12.11261314 24.93656694 10.3948171 31.44595957 5.796875 37.5234375 C0.14667783 43.55540475 -4.90405016 45.57388074 -13.0625 45.875 C-20.5189354 45.68666294 -24.9246017 43.83785405 -30.4375 38.9375 C-35.97269762 32.61155986 -38.08757135 27.45059347 -37.87109375 18.95703125 C-37.16830148 11.76177704 -33.94879413 6.26066211 -28.625 1.4375 C-20.83669824 -4.84877214 -8.49654402 -4.74432772 0 0 Z M-20.625 12.4375 C-23.24962509 15.46591357 -24.46633961 17.48553768 -25.125 21.4375 C-24.3808534 25.90237958 -22.43322938 29.06573978 -18.8125 31.8125 C-14.56610695 33.02575516 -10.9663591 32.98623781 -6.875 31.3125 C-3.98053223 28.90044353 -2.85851161 27.00097797 -1.625 23.4375 C-1.69492201 19.45194548 -2.25687454 17.07464021 -4.25 13.625 C-9.66593926 8.63663489 -14.48282195 8.72901514 -20.625 12.4375 Z " fill="none" stroke="currentColor" transform="translate(66.625,104.5625)"/>
<path d="M0 0 C5.53275655 4.3480121 8.56919643 9.89748313 10.01171875 16.74609375 C10.5926959 23.4854287 9.43653897 28.85578671 6.01171875 34.74609375 C1.32688545 40.17277701 -4.30811396 44.17621037 -11.5546875 45.05859375 C-19.35395999 45.40571019 -25.36593805 43.98122095 -31.25390625 38.72265625 C-36.6199949 33.06703045 -38.8985618 28.23814683 -39.36328125 20.43359375 C-39.13842673 13.1008381 -36.64629738 6.87669786 -31.30078125 1.80859375 C-21.93016967 -5.57642355 -10.17408359 -6.41626882 0 0 Z M-22.98828125 12.74609375 C-25.15158185 15.48627451 -25.91180573 17.23261526 -26.42578125 20.68359375 C-25.7801998 25.20266391 -23.82419545 28.35333125 -20.17578125 31.12109375 C-15.9293882 32.33434891 -12.32964035 32.29483156 -8.23828125 30.62109375 C-5.34381348 28.20903728 -4.22179286 26.30957172 -2.98828125 22.74609375 C-3.08088342 17.46776986 -4.19524265 14.43377017 -7.98828125 10.74609375 C-14.04660693 7.56547277 -17.74299176 8.6168233 -22.98828125 12.74609375 Z " fill="none" stroke="currentColor" transform="translate(67.98828125,55.25390625)"/>
<path d="M0 0 C5.39014662 4.59990631 9.25804703 9.28991821 10.15625 16.50390625 C10.31684423 24.25966267 9.5237034 30.2091807 4.78515625 36.5234375 C-0.70137799 41.94237584 -6.37940419 44.54209453 -14.08984375 44.8359375 C-21.55061605 44.64578288 -27.21874978 42.35915174 -32.671875 37.23046875 C-38.24205504 31.0680164 -38.85559396 25.06141836 -38.6015625 16.87109375 C-37.78420698 9.79560202 -34.65848706 5.08090632 -29.21484375 0.5234375 C-20.168067 -5.63253013 -9.16446675 -6.51109958 0 0 Z M-24.08984375 13.1484375 C-25.88278074 16.93352671 -25.94513709 20.42528652 -25.21484375 24.5234375 C-23.92424141 27.52860817 -22.90084218 28.33078572 -20.21484375 30.5234375 C-17.13553803 31.57628835 -14.45016316 31.87658856 -11.21484375 31.5234375 C-7.36808022 29.56508516 -5.605182 28.10894488 -3.21484375 24.5234375 C-2.87650358 20.32801945 -2.78092424 17.60823627 -4.33984375 13.7109375 C-6.69764506 10.96016931 -8.85021226 9.82809053 -12.21484375 8.5234375 C-17.22584754 8.5234375 -20.30346679 9.8669108 -24.08984375 13.1484375 Z " fill="none" stroke="currentColor" transform="translate(162.21484375,55.4765625)"/>
<path d="M0 0 C4.73307336 4.36998828 7.38688657 9.85087742 8.26171875 16.1953125 C8.48678985 22.88535693 8.04809735 28.57241002 3.8125 33.9375 C-2.3743916 40.32724051 -7.40528957 43.32926243 -16.3125 43.95703125 C-23.75379978 43.90647894 -29.15362905 40.96278329 -34.45703125 35.87109375 C-39.84095012 29.85520246 -40.91747629 24.22482376 -40.62890625 16.19140625 C-39.67160046 9.13445293 -36.8249679 3.87821339 -31.25 -0.5625 C-20.98736222 -7.32781429 -10.08304619 -6.52432401 0 0 Z M-26 12.5625 C-27.86627314 16.29504627 -27.84389368 19.85327265 -27.1875 23.9375 C-25.39476402 27.05818856 -23.94490595 28.48715052 -20.875 30.3125 C-17.23742671 31.15844728 -14.79710985 30.90435978 -11.1875 29.9375 C-7.10481389 26.47609221 -5.34568151 24.5193151 -4.8125 19.1875 C-4.88156941 15.74030877 -5.32729492 14.68947676 -7.125 11.5 C-13.6836794 6.0121254 -19.88561433 7.08063699 -26 12.5625 Z " fill="none" stroke="currentColor" transform="translate(163.1875,109.0625)"/>
<path d="M0 0 C4.49400997 2.32654498 7.6871369 5.82972456 9.828125 10.3515625 C11.35912041 16.00523835 11.0891394 20.90457326 8.828125 26.3515625 C5.72647981 30.83171667 3.03869005 33.64628667 -2.171875 35.3515625 C-7.74514566 35.97251838 -12.48331183 36.14979236 -17.609375 33.7265625 C-25.83623755 26.1016655 -25.83623755 26.1016655 -26.375 20.08203125 C-26.47366935 14.72921906 -26.35605741 10.87104722 -23.171875 6.3515625 C-16.35470627 -0.35514285 -9.66980841 -2.88702913 0 0 Z M-11.171875 12.3515625 C-13.52201658 15.1891405 -13.52201658 15.1891405 -12.859375 18.4765625 C-12.46543179 21.23242672 -12.46543179 21.23242672 -11.171875 22.3515625 C-8.2561059 22.76858372 -8.2561059 22.76858372 -5.171875 22.3515625 C-3.02404829 20.79358368 -3.02404829 20.79358368 -2.171875 18.3515625 C-2.83958683 15.95892843 -3.39284885 14.13058865 -5.171875 12.3515625 C-8.12992073 12.01815779 -8.12992073 12.01815779 -11.171875 12.3515625 Z " fill="none" stroke="currentColor" transform="translate(108.171875,84.6484375)"/>
<path d="M0 0 C0.69738281 0.05220703 1.39476562 0.10441406 2.11328125 0.15820312 C3.82596203 0.28724072 5.53805066 0.42409614 7.25 0.5625 C7.25 2.2125 7.25 3.8625 7.25 5.5625 C5.6 5.5625 3.95 5.5625 2.25 5.5625 C2.5903125 6.6453125 2.5903125 6.6453125 2.9375 7.75 C3.34077242 11.37945175 2.42142672 12.69311469 0.25 15.5625 C-2.95380017 17.69836678 -3.76939967 17.79382175 -7.4375 17.6875 C-8.24574219 17.66945312 -9.05398438 17.65140625 -9.88671875 17.6328125 C-10.50160156 17.60960937 -11.11648438 17.58640625 -11.75 17.5625 C-11.42 18.2225 -11.09 18.8825 -10.75 19.5625 C-8.10125817 19.95687215 -8.10125817 19.95687215 -5 20.0625 C-0.84748483 20.2670574 2.53797024 20.59612748 6.25 22.5625 C7.23863087 25.59430133 7.46093948 27.63963978 6.75 30.75 C4.4078846 33.5800561 1.73175647 34.71675419 -1.75 35.5625 C-12.127825 36.51526642 -12.127825 36.51526642 -16.75 33.5625 C-18.13550197 30.79149606 -17.9377467 28.6290294 -17.75 25.5625 C-16.76 24.0775 -16.76 24.0775 -15.75 22.5625 C-16.05027117 20.88956064 -16.38557767 19.22264616 -16.75 17.5625 C-16.4518576 16.22085921 -16.12756808 14.88398827 -15.75 13.5625 C-16.08 13.2325 -16.41 12.9025 -16.75 12.5625 C-17.2593745 8.14792099 -17.28561847 6.24690138 -14.5 2.6875 C-9.76412121 -0.9720427 -5.78625289 -0.47580718 0 0 Z M-8.75 4.5625 C-10.9991908 6.38953227 -10.9991908 6.38953227 -11 9.0625 C-10.9991908 11.73546773 -10.9991908 11.73546773 -8.75 13.5625 C-5.44316534 13.27266731 -5.44316534 13.27266731 -2.75 11.5625 C-2.4999227 9.10440002 -2.4999227 9.10440002 -2.75 6.5625 C-3.41 5.9025 -4.07 5.2425 -4.75 4.5625 C-6.07 4.5625 -7.39 4.5625 -8.75 4.5625 Z M-11.75 25.5625 C-12.08 26.8825 -12.41 28.2025 -12.75 29.5625 C-9.50280737 31.72729509 -8.87205971 31.81384712 -5.1875 31.4375 C-4.40246094 31.37304688 -3.61742187 31.30859375 -2.80859375 31.2421875 C-0.55786502 30.74293204 -0.55786502 30.74293204 0.52734375 28.5078125 C0.76582031 27.86585938 1.00429688 27.22390625 1.25 26.5625 C0.16447634 25.24987429 0.16447634 25.24987429 -2.47265625 25.46484375 C-3.57480469 25.47644531 -4.67695313 25.48804688 -5.8125 25.5 C-6.91722656 25.50902344 -8.02195312 25.51804688 -9.16015625 25.52734375 C-10.01480469 25.53894531 -10.86945313 25.55054688 -11.75 25.5625 Z " fill="none" stroke="currentColor" transform="translate(480.75,117.4375)"/>
<path d="M0 0 C1.98 0 3.96 0 6 0 C6.99 4.29 7.98 8.58 9 13 C9.99 9.37 10.98 5.74 12 2 C13.65 2 15.3 2 17 2 C17.99 5.63 18.98 9.26 20 13 C20.20496094 12.14535156 20.40992188 11.29070312 20.62109375 10.41015625 C20.89050781 9.30542969 21.15992188 8.20070313 21.4375 7.0625 C21.70433594 5.96035156 21.97117187 4.85820313 22.24609375 3.72265625 C23 1 23 1 24 0 C25.66617115 -0.04063832 27.33388095 -0.042721 29 0 C25.71691176 22.28308824 25.71691176 22.28308824 24 24 C21.66702567 24.04092937 19.33294775 24.04241723 17 24 C16.01 21.03 15.02 18.06 14 15 C13.34 17.97 12.68 20.94 12 24 C9.36 24 6.72 24 4 24 C3.32698711 20.75128084 2.6627049 17.50083621 2 14.25 C1.80921875 13.32960938 1.6184375 12.40921875 1.421875 11.4609375 C1.24140625 10.57148437 1.0609375 9.68203125 0.875 8.765625 C0.70742188 7.94868164 0.53984375 7.13173828 0.3671875 6.29003906 C0 4 0 4 0 0 Z " fill="none" stroke="currentColor" transform="translate(373,56)"/>
<path d="M0 0 C0.95648438 -0.02578125 1.91296875 -0.0515625 2.8984375 -0.078125 C6.00392147 0.29560086 7.33036066 1.18373709 9.625 3.25 C9.295 4.57 8.965 5.89 8.625 7.25 C7.944375 7.085 7.26375 6.92 6.5625 6.75 C3.2085178 6.17910941 0.02110195 6.18340977 -3.375 6.25 C-3.705 7.57 -4.035 8.89 -4.375 10.25 C-3.54355469 10.64832031 -2.71210938 11.04664062 -1.85546875 11.45703125 C-0.76878906 11.98683594 0.31789063 12.51664063 1.4375 13.0625 C3.05591797 13.84560547 3.05591797 13.84560547 4.70703125 14.64453125 C9.00577634 17.00970425 9.00577634 17.00970425 10.625 19.25 C11.2478087 22.29671283 11.13443248 25.18786782 10.625 28.25 C8.42668636 31.28215675 7.17536806 32.06654398 3.625 33.25 C-2.01538643 33.80866685 -6.58626165 33.60211684 -11.375 30.25 C-12.25 28.0625 -12.25 28.0625 -12.375 26.25 C-10.6875 25.0625 -10.6875 25.0625 -8.375 24.25 C-7.611875 24.724375 -6.84875 25.19875 -6.0625 25.6875 C-2.48038311 27.7701261 -0.32781833 27.10256866 3.625 26.25 C3.5880396 23.84002391 3.5880396 23.84002391 2.625 21.25 C-0.04941487 19.44245368 -0.04941487 19.44245368 -3.3125 18.125 C-9.18479178 15.53531232 -9.18479178 15.53531232 -11.375 12.25 C-12.04592652 6.09984026 -12.04592652 6.09984026 -9.5 2.875 C-6.1654685 0.32506414 -4.1624175 0.06695578 0 0 Z " fill="none" stroke="currentColor" transform="translate(301.375,109.75)"/>
<path d="M0 0 C0.95648438 -0.02578125 1.91296875 -0.0515625 2.8984375 -0.078125 C6.00392147 0.29560086 7.33036066 1.18373709 9.625 3.25 C9.295 4.57 8.965 5.89 8.625 7.25 C7.944375 7.085 7.26375 6.92 6.5625 6.75 C3.2085178 6.17910941 0.02110195 6.18340977 -3.375 6.25 C-3.705 7.57 -4.035 8.89 -4.375 10.25 C-3.54355469 10.64832031 -2.71210938 11.04664063 -1.85546875 11.45703125 C-0.76878906 11.98683594 0.31789063 12.51664063 1.4375 13.0625 C3.05591797 13.84560547 3.05591797 13.84560547 4.70703125 14.64453125 C9.00577634 17.00970425 9.00577634 17.00970425 10.625 19.25 C11.2478087 22.29671283 11.13443248 25.18786782 10.625 28.25 C8.42668636 31.28215675 7.17536806 32.06654398 3.625 33.25 C-2.01538643 33.80866685 -6.58626165 33.60211684 -11.375 30.25 C-12.25 28.0625 -12.25 28.0625 -12.375 26.25 C-10.6875 25.0625 -10.6875 25.0625 -8.375 24.25 C-7.611875 24.724375 -6.84875 25.19875 -6.0625 25.6875 C-2.48038311 27.7701261 -0.32781833 27.10256866 3.625 26.25 C3.5880396 23.84002391 3.5880396 23.84002391 2.625 21.25 C-0.04941487 19.44245368 -0.04941487 19.44245368 -3.3125 18.125 C-9.18479178 15.53531232 -9.18479178 15.53531232 -11.375 12.25 C-12.04592652 6.09984026 -12.04592652 6.09984026 -9.5 2.875 C-6.1654685 0.32506414 -4.1624175 0.06695578 0 0 Z " fill="none" stroke="currentColor" transform="translate(301.375,47.75)"/>
<path d="M0 0 C1.65 0 3.3 0 5 0 C5.33 4.29 5.66 8.58 6 13 C7.03125 12.46375 8.0625 11.9275 9.125 11.375 C12.05326783 10.13018979 12.95389073 9.99290627 16.25 10.5 C19.64565721 12.35217666 20.41875836 13.47332404 22 17 C22.35229422 20.11544313 22.28384721 23.18245086 22.1875 26.3125 C22.16719727 27.56643555 22.16719727 27.56643555 22.14648438 28.84570312 C22.11131217 30.89741498 22.05751048 32.94879275 22 35 C20.02 35 18.04 35 16 35 C15.93941406 33.78441406 15.87882812 32.56882813 15.81640625 31.31640625 C15.73201668 29.73175772 15.6473679 28.14712298 15.5625 26.5625 C15.52318359 25.76005859 15.48386719 24.95761719 15.44335938 24.13085938 C15.5945704 20.24760439 15.5945704 20.24760439 14 17 C9.6590631 17.14158662 9.6590631 17.14158662 6 19 C5.76321284 21.69235776 5.57801975 24.36498156 5.4375 27.0625 C5.39431641 27.82111328 5.35113281 28.57972656 5.30664062 29.36132812 C5.20026367 31.24065438 5.09960066 33.12030244 5 35 C3.35 35 1.7 35 0 35 C0 23.45 0 11.9 0 0 Z " fill="none" stroke="currentColor" transform="translate(319,45)"/>
<path d="M0 0 C2.05077415 3.97260741 1.61879182 7.88190161 1.4921875 12.27734375 C1.47188477 13.60958984 1.47188477 13.60958984 1.45117188 14.96875 C1.41590059 17.15556953 1.36661502 19.34114341 1.3046875 21.52734375 C-1.02864583 21.52734375 -3.36197917 21.52734375 -5.6953125 21.52734375 C-6.6853125 21.85734375 -7.6753125 22.18734375 -8.6953125 22.52734375 C-13.07035723 23.01345983 -15.02131385 22.99071782 -18.6953125 20.46484375 C-20.6953125 17.52734375 -20.6953125 17.52734375 -20.8203125 13.90234375 C-19.6953125 10.52734375 -19.6953125 10.52734375 -17.7578125 8.71484375 C-13.50292196 7.06498823 -9.18769436 6.26880483 -4.6953125 5.52734375 C-5.51184446 3.31545108 -5.51184446 3.31545108 -7.8203125 2.77734375 C-11.47518275 2.45952895 -14.24150351 3.37607409 -17.6953125 4.52734375 C-18.3553125 3.20734375 -19.0153125 1.88734375 -19.6953125 0.52734375 C-13.50905179 -3.65747967 -6.20154039 -5.38705237 0 0 Z M-14.6953125 13.52734375 C-14.3653125 14.84734375 -14.0353125 16.16734375 -13.6953125 17.52734375 C-10.40516253 17.75167216 -8.27254004 17.83114772 -5.3203125 16.27734375 C-3.24167843 14.43683503 -3.24167843 14.43683503 -3.6953125 10.52734375 C-8.36993101 10.20120757 -10.86205633 10.82151587 -14.6953125 13.52734375 Z " fill="none" stroke="currentColor" transform="translate(512.6953125,120.47265625)"/>
<path d="M0 0 C2.05077415 3.97260741 1.61879182 7.88190161 1.4921875 12.27734375 C1.47188477 13.60958984 1.47188477 13.60958984 1.45117188 14.96875 C1.41590059 17.15556953 1.36661502 19.34114341 1.3046875 21.52734375 C-1.02864583 21.52734375 -3.36197917 21.52734375 -5.6953125 21.52734375 C-6.6853125 21.85734375 -7.6753125 22.18734375 -8.6953125 22.52734375 C-13.07035723 23.01345983 -15.02131385 22.99071782 -18.6953125 20.46484375 C-20.6953125 17.52734375 -20.6953125 17.52734375 -20.8203125 13.90234375 C-19.6953125 10.52734375 -19.6953125 10.52734375 -17.7578125 8.71484375 C-13.50292196 7.06498823 -9.18769436 6.26880483 -4.6953125 5.52734375 C-5.51184446 3.31545108 -5.51184446 3.31545108 -7.8203125 2.77734375 C-11.47518275 2.45952895 -14.24150351 3.37607409 -17.6953125 4.52734375 C-18.3553125 3.20734375 -19.0153125 1.88734375 -19.6953125 0.52734375 C-13.50905179 -3.65747967 -6.20154039 -5.38705237 0 0 Z M-14.6953125 13.52734375 C-14.3653125 14.84734375 -14.0353125 16.16734375 -13.6953125 17.52734375 C-10.40516253 17.75167216 -8.27254004 17.83114772 -5.3203125 16.27734375 C-3.24167843 14.43683503 -3.24167843 14.43683503 -3.6953125 10.52734375 C-8.36993101 10.20120757 -10.86205633 10.82151587 -14.6953125 13.52734375 Z " fill="none" stroke="currentColor" transform="translate(396.6953125,120.47265625)"/>
<path d="M0 0 C2.05077415 3.97260741 1.61879182 7.88190161 1.4921875 12.27734375 C1.47188477 13.60958984 1.47188477 13.60958984 1.45117188 14.96875 C1.41590059 17.15556953 1.36661502 19.34114341 1.3046875 21.52734375 C-1.02864583 21.52734375 -3.36197917 21.52734375 -5.6953125 21.52734375 C-6.6853125 21.85734375 -7.6753125 22.18734375 -8.6953125 22.52734375 C-13.07035723 23.01345983 -15.02131385 22.99071782 -18.6953125 20.46484375 C-20.6953125 17.52734375 -20.6953125 17.52734375 -20.8203125 13.90234375 C-19.6953125 10.52734375 -19.6953125 10.52734375 -17.7578125 8.71484375 C-13.50292196 7.06498823 -9.18769436 6.26880483 -4.6953125 5.52734375 C-5.51184446 3.31545108 -5.51184446 3.31545108 -7.8203125 2.77734375 C-11.47518275 2.45952895 -14.24150351 3.37607409 -17.6953125 4.52734375 C-18.3553125 3.20734375 -19.0153125 1.88734375 -19.6953125 0.52734375 C-13.50905179 -3.65747967 -6.20154039 -5.38705237 0 0 Z M-14.6953125 13.52734375 C-14.3653125 14.84734375 -14.0353125 16.16734375 -13.6953125 17.52734375 C-10.40516253 17.75167216 -8.27254004 17.83114772 -5.3203125 16.27734375 C-3.24167843 14.43683503 -3.24167843 14.43683503 -3.6953125 10.52734375 C-8.36993101 10.20120757 -10.86205633 10.82151587 -14.6953125 13.52734375 Z " fill="none" stroke="currentColor" transform="translate(454.6953125,58.47265625)"/>
<path d="M0 0 C2.4375 2.125 2.4375 2.125 4 5 C4 7.64 4 10.28 4 13 C-1.61 13 -7.22 13 -13 13 C-11.5 17 -11.5 17 -9 18 C-5.16063232 18.1421988 -1.67983361 18.17754676 2 17 C2.33 18.65 2.66 20.3 3 22 C-1.5501089 24.3484433 -5.98785312 24.73240879 -11 24 C-14.8026029 21.9949912 -16.61790841 20.57313738 -19 17 C-19.64782134 12.65618746 -19.9252558 8.09834797 -18.125 4.015625 C-16.00947817 1.20420783 -13.80888143 -0.08494159 -10.625 -1.5 C-6.35774001 -2.08858758 -3.9471149 -1.71289892 0 0 Z M-11.375 4.8125 C-13.19877467 6.81340984 -13.19877467 6.81340984 -13 9 C-9.04 9 -5.08 9 -1 9 C-1.66 7.35 -2.32 5.7 -3 4 C-6.73171908 2.62088643 -8.15948668 2.35855563 -11.375 4.8125 Z " fill="none" stroke="currentColor" transform="translate(337,119)"/>
<path d="M0 0 C2.4375 2.125 2.4375 2.125 4 5 C4 7.64 4 10.28 4 13 C-1.61 13 -7.22 13 -13 13 C-11.5 17 -11.5 17 -9 18 C-5.16063232 18.1421988 -1.67983361 18.17754676 2 17 C2.33 18.65 2.66 20.3 3 22 C-1.5501089 24.3484433 -5.98785312 24.73240879 -11 24 C-14.8026029 21.9949912 -16.61790841 20.57313738 -19 17 C-19.64782134 12.65618746 -19.9252558 8.09834797 -18.125 4.015625 C-16.00947817 1.20420783 -13.80888143 -0.08494159 -10.625 -1.5 C-6.35774001 -2.08858758 -3.9471149 -1.71289892 0 0 Z M-11.375 4.8125 C-13.19877467 6.81340984 -13.19877467 6.81340984 -13 9 C-9.04 9 -5.08 9 -1 9 C-1.66 7.35 -2.32 5.7 -3 4 C-6.73171908 2.62088643 -8.15948668 2.35855563 -11.375 4.8125 Z " fill="none" stroke="currentColor" transform="translate(511,57)"/>
<path d="M0 0 C2.68981968 3.6391678 3.43217421 6.37831094 3.125 10.875 C2.09484974 14.80049683 0.43280558 18.39414582 -2.875 20.875 C-6.63265708 22.12755236 -9.98951081 22.64215326 -13.875 21.875 C-17.74933153 19.5341037 -20.43267172 17.20198484 -21.875 12.875 C-22.27067015 7.63237048 -21.71092201 4.33144888 -18.875 -0.125 C-13.02872147 -5.77640257 -6.24824872 -4.61827079 0 0 Z M-14.875 3.875 C-16.04637555 7.41916194 -16.1212712 10.6744279 -15.375 14.3125 C-13.81202013 16.20840577 -13.81202013 16.20840577 -10.4375 16.8125 C-7.03252419 17.1740718 -7.03252419 17.1740718 -5 15.8125 C-3.40566466 13.06670025 -2.99976933 11.05661789 -2.875 7.875 C-4.37388098 3.59580872 -4.37388098 3.59580872 -7.75 0.8125 C-11.02440381 0.90880599 -12.42656739 1.69126281 -14.875 3.875 Z " fill="none" stroke="currentColor" transform="translate(367.875,59.125)"/>
<path d="M0 0 C-0.66 1.32 -1.32 2.64 -2 4 C-6.29 3.67 -10.58 3.34 -15 3 C-15 3.99 -15 4.98 -15 6 C-14.18015625 6.17015625 -13.3603125 6.3403125 -12.515625 6.515625 C-10.89914062 6.87914063 -10.89914062 6.87914063 -9.25 7.25 C-8.18265625 7.48203125 -7.1153125 7.7140625 -6.015625 7.953125 C-2.67507375 9.11279823 -1.13571695 10.20236594 1 13 C1.0625 16.5625 1.0625 16.5625 0 20 C-2.97202764 22.97202764 -5.83497343 23.22126992 -9.875 23.375 C-14.57934389 23.24823624 -17.85114165 22.16462175 -22 20 C-21.625 18.0625 -21.625 18.0625 -21 16 C-20.34 15.67 -19.68 15.34 -19 15 C-18.39671875 15.30679688 -17.7934375 15.61359375 -17.171875 15.9296875 C-14.65542567 17.16980821 -13.03289513 17.20684986 -10.25 17.125 C-9.05117188 17.09792969 -9.05117188 17.09792969 -7.828125 17.0703125 C-7.22484375 17.04710937 -6.6215625 17.02390625 -6 17 C-6.33 16.01 -6.66 15.02 -7 14 C-9.20020861 13.11786949 -9.20020861 13.11786949 -11.8125 12.5625 C-15.85119808 11.44738021 -18.6246073 10.67106144 -21 7 C-21.5625 4.5 -21.5625 4.5 -21 2 C-14.90720897 -4.26687077 -7.49090314 -3.74545157 0 0 Z " fill="none" stroke="currentColor" transform="translate(572,120)"/>
<path d="M0 0 C-0.66 1.32 -1.32 2.64 -2 4 C-6.29 3.67 -10.58 3.34 -15 3 C-15 3.99 -15 4.98 -15 6 C-14.18015625 6.17015625 -13.3603125 6.3403125 -12.515625 6.515625 C-10.89914062 6.87914063 -10.89914062 6.87914063 -9.25 7.25 C-8.18265625 7.48203125 -7.1153125 7.7140625 -6.015625 7.953125 C-2.67507375 9.11279823 -1.13571695 10.20236594 1 13 C1.0625 16.5625 1.0625 16.5625 0 20 C-2.97202764 22.97202764 -5.83497343 23.22126992 -9.875 23.375 C-14.57934389 23.24823624 -17.85114165 22.16462175 -22 20 C-21.625 18.0625 -21.625 18.0625 -21 16 C-20.34 15.67 -19.68 15.34 -19 15 C-18.39671875 15.30679688 -17.7934375 15.61359375 -17.171875 15.9296875 C-14.65542567 17.16980821 -13.03289513 17.20684986 -10.25 17.125 C-9.05117188 17.09792969 -9.05117188 17.09792969 -7.828125 17.0703125 C-7.22484375 17.04710938 -6.6215625 17.02390625 -6 17 C-6.33 16.01 -6.66 15.02 -7 14 C-9.20020861 13.11786949 -9.20020861 13.11786949 -11.8125 12.5625 C-15.85119808 11.44738021 -18.6246073 10.67106144 -21 7 C-21.5625 4.5 -21.5625 4.5 -21 2 C-14.90720897 -4.26687077 -7.49090314 -3.74545157 0 0 Z " fill="none" stroke="currentColor" transform="translate(485,58)"/>
<path d="M0 0 C3.7067654 4.49172749 3.35765945 8.78449937 3.1875 14.3125 C3.16719727 15.56643555 3.16719727 15.56643555 3.14648438 16.84570312 C3.11131217 18.89741498 3.05751048 20.94879275 3 23 C1.02 23 -0.96 23 -3 23 C-3.06058594 21.78441406 -3.12117187 20.56882813 -3.18359375 19.31640625 C-3.26798332 17.73175772 -3.3526321 16.14712298 -3.4375 14.5625 C-3.47681641 13.76005859 -3.51613281 12.95761719 -3.55664062 12.13085938 C-3.4054296 8.24760439 -3.4054296 8.24760439 -5 5 C-9.3409369 5.14158662 -9.3409369 5.14158662 -13 7 C-13.23678716 9.69235776 -13.42198025 12.36498156 -13.5625 15.0625 C-13.60568359 15.82111328 -13.64886719 16.57972656 -13.69335938 17.36132812 C-13.79973633 19.24065438 -13.90039934 21.12030244 -14 23 C-15.65 23 -17.3 23 -19 23 C-19 15.08 -19 7.16 -19 -1 C-17.35 -1 -15.7 -1 -14 -1 C-13.67 -0.34 -13.34 0.32 -13 1 C-11.96875 0.46375 -10.9375 -0.0725 -9.875 -0.625 C-5.97930789 -2.28106345 -3.80380483 -2.07480263 0 0 Z " fill="none" stroke="currentColor" transform="translate(541,119)"/>
<path d="M0 0 C3.7067654 4.49172749 3.35765945 8.78449937 3.1875 14.3125 C3.16719727 15.56643555 3.16719727 15.56643555 3.14648438 16.84570312 C3.11131217 18.89741498 3.05751048 20.94879275 3 23 C1.02 23 -0.96 23 -3 23 C-3.06058594 21.78441406 -3.12117188 20.56882813 -3.18359375 19.31640625 C-3.26798332 17.73175772 -3.3526321 16.14712298 -3.4375 14.5625 C-3.47681641 13.76005859 -3.51613281 12.95761719 -3.55664062 12.13085938 C-3.4054296 8.24760439 -3.4054296 8.24760439 -5 5 C-9.3409369 5.14158662 -9.3409369 5.14158662 -13 7 C-13.23678716 9.69235776 -13.42198025 12.36498156 -13.5625 15.0625 C-13.60568359 15.82111328 -13.64886719 16.57972656 -13.69335938 17.36132812 C-13.79973633 19.24065438 -13.90039934 21.12030244 -14 23 C-15.65 23 -17.3 23 -19 23 C-19 15.08 -19 7.16 -19 -1 C-17.35 -1 -15.7 -1 -14 -1 C-13.67 -0.34 -13.34 0.32 -13 1 C-11.96875 0.46375 -10.9375 -0.0725 -9.875 -0.625 C-5.97930789 -2.28106345 -3.80380483 -2.07480263 0 0 Z " fill="none" stroke="currentColor" transform="translate(425,119)"/>
<path d="M0 0 C3.7067654 4.49172749 3.35765945 8.78449937 3.1875 14.3125 C3.16719727 15.56643555 3.16719727 15.56643555 3.14648438 16.84570312 C3.11131217 18.89741498 3.05751048 20.94879275 3 23 C1.02 23 -0.96 23 -3 23 C-3.06058594 21.78441406 -3.12117188 20.56882813 -3.18359375 19.31640625 C-3.26798332 17.73175772 -3.3526321 16.14712298 -3.4375 14.5625 C-3.47681641 13.76005859 -3.51613281 12.95761719 -3.55664062 12.13085938 C-3.4054296 8.24760439 -3.4054296 8.24760439 -5 5 C-9.3409369 5.14158662 -9.3409369 5.14158662 -13 7 C-13.23678716 9.69235776 -13.42198025 12.36498156 -13.5625 15.0625 C-13.60568359 15.82111328 -13.64886719 16.57972656 -13.69335938 17.36132812 C-13.79973633 19.24065438 -13.90039934 21.12030244 -14 23 C-15.65 23 -17.3 23 -19 23 C-19 15.08 -19 7.16 -19 -1 C-17.35 -1 -15.7 -1 -14 -1 C-13.67 -0.34 -13.34 0.32 -13 1 C-11.96875 0.46375 -10.9375 -0.0725 -9.875 -0.625 C-5.97930789 -2.28106345 -3.80380483 -2.07480263 0 0 Z " fill="none" stroke="currentColor" transform="translate(367,119)"/>
<path d="M0 0 C0.99 1.485 0.99 1.485 2 3 C1.01 4.485 1.01 4.485 0 6 C-1.216875 5.608125 -2.43375 5.21625 -3.6875 4.8125 C-6.76618851 4.05920387 -7.82151001 3.94303511 -10.9375 4.9375 C-13.28046461 6.95956806 -13.28046461 6.95956806 -14.0625 10.4375 C-14.31201155 13.98253455 -14.31201155 13.98253455 -12.4375 16.4375 C-9.34042822 18.42280242 -7.62256375 18.45282047 -4 18 C-1.69769234 17.10168984 -1.69769234 17.10168984 0 16 C0.66 16.66 1.32 17.32 2 18 C1.875 20 1.875 20 1 22 C-3.17893783 24.59920749 -7.21861067 24.56452897 -12 24 C-15.23300086 22.52406483 -17.72160787 20.73407055 -20 18 C-21.60350577 13.18948268 -21.72227283 8.88369444 -19.5625 4.25 C-17.24385475 0.6204599 -14.46971914 -0.59917071 -10.38671875 -1.69921875 C-6.39447515 -2.20233292 -3.7554016 -1.44945325 0 0 Z " fill="none" stroke="currentColor" transform="translate(426,57)"/>
<path d="M0 0 C5.28 0 10.56 0 16 0 C16 7.92 16 15.84 16 24 C14.02 24 12.04 24 10 24 C10 17.73 10 11.46 10 5 C6.7 5 3.4 5 0 5 C0 3.35 0 1.7 0 0 Z " fill="none" stroke="currentColor" transform="translate(435,118)"/>
<path d="M0 0 C2.5625 0.1875 2.5625 0.1875 4.5625 2.1875 C4.1875 4.8125 4.1875 4.8125 3.5625 7.1875 C1.56295254 7.23004356 -0.43791636 7.22830783 -2.4375 7.1875 C-3.4375 6.1875 -3.4375 6.1875 -3.5625 3.6875 C-3.39599509 0.35740177 -3.31519894 0.2550153 0 0 Z " fill="none" stroke="currentColor" transform="translate(447.4375,106.8125)"/>
</svg>
